# xmcd CD database file
#
# Track frame offsets:
#	150
#	13962
#	31002
#	49287
#	69732
#	88832
#	106262
#	125270
#	143332
#	165422
#
# Disc length: 2499 seconds
#
# Revision: 1
# Processed by: cddbd v1.5.1PL0 Copyright (c) Steve Scherf et al.
# Submitted via: CDex 1.51
#
DISCID=7c09c10a
DTITLE=金丸日向子・鶴ひろみ・冬馬由美・久川綾・嶋方淳子 with B-CLUB・BAND - OVA卒業/聖羅V（ビクトリー）イメージボーカル集
DYEAR=1900
DGENRE=Anime
TTITLE0=卒業旅行
TTITLE1=季節のフォトグラフ
TTITLE2=嶋方淳子 with B-CLUB・BAND/Simple Mind
TTITLE3=金丸日向子 with B-CLUB・BAND/午後のDrippy Heart
TTITLE4=久川綾 with B-CLUB・BAND/雨音のコンツェルト
TTITLE5=聖羅V〜花吹雪の乱〜（アルバムバージョン）
TTITLE6=In The Groove〜ハデに行こう!!〜（アルバムバージョン）.mp3
TTITLE7=鶴ひろみ with B-CLUB・BAND/Ride On
TTITLE8=冬馬由美 with B-CLUB・BAND/Realize〜夢を捜して〜
TTITLE9=卒業〜Graduation〜
EXTD=
EXTT0=
EXTT1=
EXTT2=
EXTT3=
EXTT4=
EXTT5=
EXTT6=
EXTT7=
EXTT8=
EXTT9=
PLAYORDER=
